{
  "accessors": [
    {
      "bufferView": 2,
      "componentType": 5126,
      "count": 20053,
      "max": [
        0.14395444095134735,
        0.15021540224552155,
        0.10724931210279465
      ],
      "min": [
        -0.13790318369865417,
        -0.15532417595386505,
        -0.14073793590068817
      ],
      "type": "VEC3"
    },
    {
      "bufferView": 2,
      "byteOffset": 240636,
      "componentType": 5126,
      "count": 20053,
      "max": [
        0.9999915957450867,
        0.9999821782112122,
        0.9999563694000244
      ],
      "min": [
        -0.9997792840003967,
        -0.9999397993087769,
        -0.9999563694000244
      ],
      "type": "VEC3"
    },
    {
      "bufferView": 1,
      "componentType": 5126,
      "count": 20053,
      "max": [
        0.987643837928772,
        0.9968544840812683
      ],
      "min": [
        0.00233850022777915,
        0.2522522211074829
      ],
      "type": "VEC2"
    },
    {
      "bufferView": 0,
      "componentType": 5125,
      "count": 90621,
      "type": "SCALAR"
    }
  ],
  "asset": {
    "extras": {
      "author": "skullvez (https://sketchfab.com/skullvez)",
      "license": "CC-BY-4.0 (http://creativecommons.org/licenses/by/4.0/)",
      "source": "https://sketchfab.com/3d-models/ally-pretty-beautiful-face-head-model-with-hair-b579aa8891654634bb990108009808b8",
      "title": "Ally Pretty Beautiful Face Head Model With Hair"
    },
    "generator": "Sketchfab-14.64.0",
    "version": "2.0"
  },
  "bufferViews": [
    {
      "buffer": 0,
      "byteLength": 362484,
      "name": "floatBufferViews",
      "target": 34963
    },
    {
      "buffer": 0,
      "byteLength": 160424,
      "byteOffset": 362484,
      "byteStride": 8,
      "name": "floatBufferViews",
      "target": 34962
    },
    {
      "buffer": 0,
      "byteLength": 481272,
      "byteOffset": 522908,
      "byteStride": 12,
      "name": "floatBufferViews",
      "target": 34962
    }
  ],
  "buffers": [
    {
      "byteLength": 1004180,
      "uri": "mommy.bin"
    }
  ],
  "images": [
    {
      "uri": "textures/Skin_baseColor.png"
    }
  ],
  "materials": [
    {
      "doubleSided": true,
      "name": "Skin",
      "pbrMetallicRoughness": {
        "baseColorTexture": {
          "index": 0
        },
        "metallicFactor": 0.0
      }
    }
  ],
  "meshes": [
    {
      "name": "0",
      "primitives": [
        {
          "attributes": {
            "NORMAL": 1,
            "POSITION": 0,
            "TEXCOORD_0": 2
          },
          "indices": 3,
          "material": 0,
          "mode": 4
        }
      ]
    }
  ],
  "nodes": [
    {
      "children": [
        1
      ],
      "matrix": [
        1.0,
        0.0,
        0.0,
        0.0,
        0.0,
        2.220446049250313e-16,
        -1.0,
        0.0,
        0.0,
        1.0,
        2.220446049250313e-16,
        0.0,
        0.0,
        0.0,
        0.0,
        1.0
      ],
      "name": "Sketchfab_model"
    },
    {
      "children": [
        2
      ],
      "matrix": [
        1.0,
        0.0,
        0.0,
        0.0,
        0.0,
        0.0,
        1.0,
        0.0,
        0.0,
        -1.0,
        0.0,
        0.0,
        0.0,
        0.0,
        0.0,
        1.0
      ],
      "name": "Ally Face Head Model with hair.fbx"
    },
    {
      "children": [
        3
      ],
      "name": "RootNode"
    },
    {
      "children": [
        4
      ],
      "name": "Head"
    },
    {
      "mesh": 0,
      "name": "0"
    }
  ],
  "samplers": [
    {
      "magFilter": 9729,
      "minFilter": 9987,
      "wrapS": 10497,
      "wrapT": 10497
    }
  ],
  "scene": 0,
  "scenes": [
    {
      "name": "Sketchfab_Scene",
      "nodes": [
        0
      ]
    }
  ],
  "textures": [
    {
      "sampler": 0,
      "source": 0
    }
  ]
}
